{"title":"White.Collar.Hooligan.2014.WEBrip.Xvid.Ac3-MiLLENiUM","uid":10623224,"size":1663125783,"categoryP":"video","categoryS":"movies","magnet":"?xt=urn:btih:6039fce09ce90faf967a74c35bc0489572eb102f&amp;dn=White.Collar.Hooligan.2014.WEBrip.Xvid.Ac3-MiLLENiUM&amp;tr=udp%3A%2F%2Ftracker.openbittorrent.com%3A80&amp;tr=udp%3A%2F%2Fopen.demonii.com%3A1337&amp;tr=udp%3A%2F%2Ftracker.coppersurfer.tk%3A6969&amp;tr=udp%3A%2F%2Fexodus.desync.com%3A6969","seeders":1,"leechers":1,"uploader":"Xetron","files":3,"time":1406194191,"description":" &lt;a href=&quot;http://i.imgur.com/A59tC63.jpg&quot; rel=&quot;nofollow&quot; target=&quot;_NEW&quot;&gt;http://i.imgur.com/A59tC63.jpg&lt;/a&gt;\n\nWhite.Collar.Hooligan.3.2014.WEBrip.Xvid.Ac3-MiLLENiUM\n\n\n\n\n &lt;a href=&quot;\nhttp://www.imdb.com/title/tt2850304/&quot; rel=&quot;nofollow&quot; target=&quot;_NEW&quot;&gt;\nhttp://www.imdb.com/title/tt2850304/&lt;/a&gt;\n\n\nStoryline\n\nMike and Eddie manage to track down the villain responsible for the death of Katie to exact their revenge, but all does not go according to plan in Rio against the backdrop of the World Cup.\n\nSource................:1080p WEB-DL thanks\n\nSample.................Yes\n\n\n\nGeneral\nComplete name                            : White.Collar.Hooligan.2014.WEBrip.Xvid.Ac3-MiLLENiUM.avi\nFormat                                   : AVI\nFormat/Info                              : Audio Video Interleave\nFile size                                : 1.49 GiB\nDuration                                 : 1h 41mn\nOverall bit rate                         : 2 091 Kbps\n\n\n\n\n\nID                                       : 0\nFormat                                   : MPEG-4 Visual\nFormat profile                           : Advanced Simple@L5\nFormat settings, BVOP                    : 2\nFormat settings, QPel                    : Yes\nFormat settings, GMC                     : No warppoints\nFormat settings, Matrix                  : Default (MPEG)\nCodec ID                                 : XVID\nCodec ID/Hint                            : XviD\nDuration                                 : 1h 41mn\nBit rate                                 : 1 700 Kbps\nWidth                                    : 720 pixels\nHeight                                   : 304 pixels\nDisplay aspect ratio                     : 2.35:1\nFrame rate                               : 25.000 fps\nColor space                              : YUV\nChroma subsampling                       : 4:2:0\nBit depth                                : 8 bits\nScan type                                : Progressive\nCompression mode                         : Lossy\nBits/(Pixel*Frame)                       : 0.311\nStream size                              : 1.21 GiB (81%)\nWriting library                          : XviD 1.2.1 (UTC 2008-12-04)\n\n\n\n\nID                                       : 1\nFormat                                   : AC-3\nFormat/Info                              : Audio Coding 3\nMode extension                           : CM (complete main)\nCodec ID                                 : 2000\nDuration                                 : 1h 41mn\nBit rate mode                            : Constant\nBit rate                                 : 384 Kbps\nChannel(s)                               : 6 channels\nChannel positions                        : Front: L C R, Side: L R, LFE\nSampling rate                            : 48.0 KHz\nBit depth                                : 16 bits\nCompression mode                         : Lossy\nStream size                              : 280 MiB (18%)\nAlignment                                : Aligned on interleaves\nInterleave, duration                     : 64 ms (1.60 video frames)\nInterleave, preload duration             : 192 ms\n &lt;a href=&quot;\nhttp://i.imgur.com/OnsJR5x.jpg&quot; rel=&quot;nofollow&quot; target=&quot;_NEW&quot;&gt;\nhttp://i.imgur.com/OnsJR5x.jpg&lt;/a&gt; &lt;a href=&quot;\nhttp://i.imgur.com/82Fc8jA.jpg&quot; rel=&quot;nofollow&quot; target=&quot;_NEW&quot;&gt;\nhttp://i.imgur.com/82Fc8jA.jpg&lt;/a&gt; &lt;a href=&quot;\nhttp://i.imgur.com/QUs2nbR.jpg&quot; rel=&quot;nofollow&quot; target=&quot;_NEW&quot;&gt;\nhttp://i.imgur.com/QUs2nbR.jpg&lt;/a&gt;\n","torrent":{"xt":"urn:btih:6039fce09ce90faf967a74c35bc0489572eb102f","amp;dn":"White.Collar.Hooligan.2014.WEBrip.Xvid.Ac3-MiLLENiUM","amp;tr":["udp%3A%2F%2Ftracker.openbittorrent.com%3A80","udp%3A%2F%2Fopen.demonii.com%3A1337","udp%3A%2F%2Ftracker.coppersurfer.tk%3A6969","udp%3A%2F%2Fexodus.desync.com%3A6969"],"infoHash":"6039fce09ce90faf967a74c35bc0489572eb102f","infoHashBuffer":{"type":"Buffer","data":[96,57,252,224,156,233,15,175,150,122,116,195,91,192,72,149,114,235,16,47]},"announce":[],"urlList":[]}}